<svg width="62" height="60" viewBox="0 0 62 60" fill="none" xmlns="http://www.w3.org/2000/svg">
    <path
        fill-rule="evenodd"
        clip-rule="evenodd"
        d="M4.95645 13C3.32426 13 2 14.3465 2 16.0041V17.7722C2 19 2.46691 20.1808 3.30212 21.0689L12.4552 30.8015L12.4592 30.7954C14.2263 32.6044 15.2205 35.0498 15.2205 37.5996V46.2353C15.2205 46.8124 15.8242 47.1808 16.3253 46.9086L21.5378 44.0682C22.3247 43.6384 22.8158 42.8036 22.8158 41.897V37.5771C22.8158 35.0416 23.7959 32.6064 25.5468 30.8015L34.6999 21.0689C35.5331 20.1808 36 19 36 17.7722V16.0041C36 14.3465 34.6777 13 33.0456 13H4.95645Z"
        fill="#FF8A1D"
        fill-opacity="0.2"
        stroke="#FF8A1D"
        stroke-width="3"
        stroke-linecap="round"
        stroke-linejoin="round"
    />
</svg>