<svg width="52" height="50" viewBox="0 0 52 50" fill="none" xmlns="http://www.w3.org/2000/svg">
    <path
        d="M32.7932 33.5173C32.7932 33.5173 10.5172 28.9311 7.8966 28.2759C5.27588 27.6208 2 24.1858 2 19.7587C2 15.3314 5.27588 11.8966 7.8966 11.2414C10.5172 10.5862 32.7932 6 32.7932 6"
        fill="#016BFF"
        fill-opacity="0.2"
    />
    <path
        d="M32.7932 33.5173C32.7932 33.5173 10.5172 28.9311 7.8966 28.2759C5.27588 27.6208 2 24.1858 2 19.7587C2 15.3314 5.27588 11.8966 7.8966 11.2414C10.5172 10.5862 32.7932 6 32.7932 6"
        stroke="#016BFF"
        stroke-width="3"
        stroke-linecap="round"
        stroke-linejoin="round"
    />
    <path
        d="M40.0002 19.7587C40.0002 26.9103 36.3312 33.5173 32.7933 33.5173C29.2554 33.5173 25.5864 26.9103 25.5864 19.7587C25.5864 12.6069 29.2554 6 32.7933 6C36.3312 6 40.0002 12.6069 40.0002 19.7587Z"
        fill="#016BFF"
        fill-opacity="0.2"
        stroke="#016BFF"
        stroke-width="3"
        stroke-linecap="round"
        stroke-linejoin="round"
    />
    <path
        d="M7.2417 28.931V38.7585C7.2417 41.6534 9.58834 44 12.4831 44H13.7935C16.6883 44 19.0348 41.6534 19.0348 38.7585V31.5516"
        fill="#016BFF"
        fill-opacity="0.2"
    />
    <path
        d="M7.2417 28.931V38.7585C7.2417 41.6534 9.58834 44 12.4831 44H13.7935C16.6883 44 19.0348 41.6534 19.0348 38.7585V31.5516"
        stroke="#016BFF"
        stroke-width="3"
    />
    <path
        d="M7.2417 28.931V38.7585C7.2417 41.6534 9.58834 44 12.4831 44H13.7935C16.6883 44 19.0348 41.6534 19.0348 38.7585V31.5516"
        fill="#016BFF"
        fill-opacity="0.2"
    />
    <path
        d="M7.2417 28.931V38.7585C7.2417 41.6534 9.58834 44 12.4831 44H13.7935C16.6883 44 19.0348 41.6534 19.0348 38.7585V31.5516"
        stroke="#016BFF"
        stroke-width="3"
        stroke-linecap="round"
        stroke-linejoin="round"
    />
</svg>