<svg width="60" height="60" viewBox="0 0 60 60" fill="none" xmlns="http://www.w3.org/2000/svg">
    <path
        opacity="0.2"
        d="M1.26367 46.2398V28.7516H3.76198C5.4024 28.7516 7.02673 28.4285 8.54227 27.8008C10.0578 27.173 11.4349 26.2529 12.5948 25.0929C13.7547 23.933 14.6749 22.5559 15.3026 21.0404C15.9304 19.5248 16.2535 17.9005 16.2535 16.2601V15.0109C16.2535 14.0171 16.6484 13.0639 17.3511 12.3611C18.0539 11.6583 19.0071 11.2635 20.001 11.2635C20.9948 11.2635 21.948 11.6583 22.6508 12.3611C23.3536 13.0639 23.7484 14.0171 23.7484 15.0109V21.2567C23.7484 21.9193 24.0116 22.5548 24.4802 23.0232C24.9487 23.4918 25.5841 23.755 26.2467 23.755H31.2433C32.2907 23.7551 33.3265 23.9748 34.2837 24.3997C35.2411 24.8247 36.0987 25.4457 36.8012 26.2225C37.5038 26.9993 38.0357 27.9147 38.3628 28.9097C38.6898 29.9047 38.8047 30.9573 38.6999 31.9994L37.9255 39.7425C37.6777 42.2075 36.5232 44.4925 34.6859 46.1544C32.8487 47.8162 30.4596 48.7364 27.9822 48.7364H17.6559C16.7276 48.7362 15.8038 48.6066 14.9111 48.3516L8.8552 46.6245C7.96253 46.3695 7.03873 46.24 6.1104 46.2398H1.26367Z"
        fill="#6B2EFF"
    />
    <path
        fill-rule="evenodd"
        clip-rule="evenodd"
        d="M20.0008 12.5271C19.342 12.5271 18.7102 12.7888 18.2444 13.2546C17.7786 13.7204 17.5169 14.3522 17.5169 15.011V16.2601C17.5169 18.0665 17.1611 19.8551 16.4698 21.524C15.7786 23.1928 14.7654 24.7091 13.4882 25.9864C12.2109 27.2637 10.6945 28.2769 9.02568 28.9682C7.35681 29.6594 5.5682 30.0152 3.76184 30.0152H2.52707V44.9763H6.11027C7.15567 44.9766 8.19634 45.1224 9.20161 45.4095C9.20141 45.4094 9.20174 45.4095 9.20161 45.4095L15.2575 47.1366C16.0373 47.3594 16.8448 47.4727 17.6558 47.4729C17.6556 47.4729 17.6559 47.4729 17.6558 47.4729H27.9821C30.1463 47.4729 32.2333 46.6691 33.8382 45.2174C35.443 43.7658 36.4515 41.7698 36.6681 39.6168L37.4425 31.8737C37.5296 31.0073 37.4342 30.1316 37.1623 29.3043C36.8904 28.477 36.4481 27.7159 35.864 27.0701C35.2799 26.4242 34.5668 25.9079 33.7709 25.5546C32.9751 25.2013 32.114 25.0187 31.2432 25.0186C31.2433 25.0186 31.2431 25.0186 31.2432 25.0186H26.2466C25.2489 25.0186 24.292 24.6223 23.5866 23.9168C22.8811 23.2113 22.4848 22.2545 22.4848 21.2567V15.011C22.4848 14.3522 22.223 13.7204 21.7572 13.2546C21.2914 12.7888 20.6596 12.5271 20.0008 12.5271ZM16.4575 11.4677C17.3972 10.5279 18.6718 10 20.0008 10C21.3298 10 22.6044 10.5279 23.5441 11.4677C24.4838 12.4074 25.0118 13.682 25.0118 15.011V21.2567C25.0118 21.5843 25.1419 21.8983 25.3734 22.1299C25.6051 22.3614 25.9191 22.4915 26.2466 22.4915H31.2432C32.4672 22.4917 33.6777 22.7483 34.7963 23.2449C35.915 23.7416 36.9171 24.4672 37.7382 25.3749C38.5592 26.2827 39.1808 27.3525 39.563 28.5152C39.9452 29.6778 40.0794 30.9076 39.9571 32.1252L39.1826 39.8683C38.9035 42.6449 37.603 45.2195 35.5334 47.0915C33.4638 48.9635 30.7727 50 27.9821 50H17.6558C16.6103 49.9997 15.5696 49.8539 14.5644 49.5668C14.5646 49.5668 14.5642 49.5667 14.5644 49.5668L8.50847 47.8396C7.72874 47.6169 6.9212 47.5036 6.11027 47.5033C6.11034 47.5033 6.11014 47.5033 6.11027 47.5033H1.26354C0.565708 47.5033 0 46.9377 0 46.2398V28.7517C0 28.0538 0.565708 27.4881 1.26354 27.4881H3.76184C5.23633 27.4881 6.69634 27.1977 8.05861 26.6335C9.42088 26.0692 10.6586 25.2421 11.7012 24.1995C12.7438 23.1569 13.5709 21.9191 14.1352 20.5569C14.6994 19.1947 14.9898 17.7347 14.9898 16.2601V15.011C14.9898 13.682 15.5178 12.4074 16.4575 11.4677Z"
        fill="#6B2EFF"
    />
    <path
        fill-rule="evenodd"
        clip-rule="evenodd"
        d="M0 29.0198C0 28.322 0.565708 27.7563 1.26354 27.7563H8.56907C9.26694 27.7563 9.83261 28.322 9.83261 29.0198V46.1881C9.83261 46.8859 9.26694 47.4516 8.56907 47.4516H1.26354C0.565708 47.4516 0 46.8859 0 46.1881V29.0198ZM2.52707 30.2834V44.9245H7.3056V30.2834H2.52707Z"
        fill="#6B2EFF"
    />
</svg>