<svg width="60" height="60" viewBox="0 0 60 60" fill="none" xmlns="http://www.w3.org/2000/svg">
    <path
        opacity="0.2"
        fill-rule="evenodd"
        clip-rule="evenodd"
        d="M28.7514 11.3335H11.2482C5.15482 11.3335 1.33333 15.6506 1.33333 21.7602V38.2397C1.33333 44.3493 5.13862 48.6664 11.2482 48.6664H28.7413C34.8609 48.6664 38.6642 44.3493 38.6642 38.2397V21.7602C38.6723 15.6506 34.867 11.3335 28.7514 11.3335Z"
        fill="#FF5B5D"
    />
    <path
        fill-rule="evenodd"
        clip-rule="evenodd"
        d="M3.03026 13.3468C5.02522 11.2055 7.87114 10 11.2484 10H28.7516C32.1388 10 34.9871 11.2047 36.9807 13.3474C38.9645 15.4795 40.0024 18.4314 39.998 21.762V38.2398C39.998 41.5697 38.9585 44.5212 36.9739 46.6529C34.9793 48.7955 32.1306 50 28.7415 50H11.2484C7.86381 50 5.01728 48.795 3.02366 46.6527C1.04009 44.5212 0 41.5698 0 38.2398V21.7602C0 18.4287 1.04502 15.4776 3.03026 13.3468ZM4.98168 15.1649C3.53284 16.72 2.66712 18.9822 2.66712 21.7602V38.2398C2.66712 41.0193 3.52968 43.2814 4.97615 44.8358C6.41261 46.3793 8.52347 47.3329 11.2484 47.3329H28.7415C31.4721 47.3329 33.5849 46.3789 35.0218 44.8356C36.4687 43.2814 37.3309 41.0194 37.3309 38.2398V21.7602V21.7585C37.3346 18.9795 36.4739 16.7181 35.0281 15.1642C33.5923 13.621 31.4801 12.6671 28.7516 12.6671H11.2484C8.53234 12.6671 6.42081 13.6202 4.98168 15.1649Z"
        fill="#FF5B5D"
    />
    <path
        d="M12.371 33.1768C12.371 36.7867 16.2934 39.0301 19.4049 37.1999L24.8053 34.0234C27.8733 32.2187 27.8733 27.7818 24.8053 25.9772L19.4049 22.8006C16.2934 20.9705 12.371 23.2139 12.371 26.8238V33.1768Z"
        fill="white"
    />
    <path
        fill-rule="evenodd"
        clip-rule="evenodd"
        d="M18.0527 34.901L23.4531 31.7245C24.7679 30.9511 24.7679 29.0496 23.4531 28.2761L18.0527 25.0996C16.7192 24.3152 15.0382 25.2767 15.0382 26.8238V33.1768C15.0382 34.7239 16.7192 35.6854 18.0527 34.901ZM19.4049 37.1999C16.2934 39.0301 12.371 36.7867 12.371 33.1768V26.8238C12.371 23.2139 16.2934 20.9705 19.4049 22.8006L24.8053 25.9772C27.8733 27.7818 27.8733 32.2187 24.8053 34.0234L19.4049 37.1999Z"
        fill="#FF5B5D"
    />
</svg>