<?xml version="1.0" standalone="no"?>
<!DOCTYPE svg PUBLIC "-//W3C//DTD SVG 20010904//EN"
 "http://www.w3.org/TR/2001/REC-SVG-20010904/DTD/svg10.dtd">
<svg version="1.0" xmlns="http://www.w3.org/2000/svg"
 width="1024.000000pt" height="1024.000000pt" viewBox="0 0 1024.000000 1024.000000"
 preserveAspectRatio="xMidYMid meet">
<metadata>
Created by potrace 1.14, written by Peter Selinger 2001-2017
</metadata>
<g transform="translate(0.000000,1024.000000) scale(0.100000,-0.100000)"
fill="#000000" stroke="none">
<path d="M1040 9298 c0 -6 -6 -19 -14 -27 -11 -12 -12 -28 -6 -66 5 -27 9
-841 9 -1807 1 -1752 1 -1757 -19 -1763 -11 -3 -20 -11 -20 -16 0 -6 6 -7 12
-4 7 4 4 -1 -6 -9 -11 -9 -24 -22 -29 -28 -5 -8 -6 -5 -2 9 6 20 4 22 -17 14
-16 -6 -24 -17 -26 -39 -2 -20 -10 -33 -23 -37 -15 -5 -19 -16 -19 -46 0 -40
0 -41 -37 -39 -70 3 -66 9 -46 -75 3 -15 2 -16 -5 -6 -6 9 -19 11 -40 6 -35
-7 -48 -43 -37 -96 6 -27 2 -35 -24 -60 -17 -15 -32 -36 -34 -46 -5 -31 -21
-48 -47 -48 -21 0 -26 -5 -28 -34 l-3 -34 25 29 c23 25 22 21 -9 -34 -19 -35
-35 -68 -35 -73 0 -5 -14 -9 -30 -9 -30 0 -31 -1 -29 -47 1 -49 -23 -123 -41
-123 -6 0 -10 -11 -10 -25 0 -14 -4 -33 -10 -43 -5 -9 -14 -36 -20 -59 -8 -33
-14 -40 -29 -36 -12 3 -20 -2 -24 -16 -3 -12 -1 -19 4 -15 5 3 9 -11 9 -30 0
-19 -5 -38 -10 -41 -6 -3 -10 -21 -10 -38 0 -18 -5 -49 -11 -70 -8 -30 -14
-37 -27 -32 -9 4 -21 7 -27 8 -11 2 -25 -211 -15 -228 11 -20 2 -257 -11 -265
-8 -6 -10 -21 -5 -46 3 -22 9 -100 12 -174 3 -74 7 -141 9 -147 3 -7 15 -13
29 -13 21 0 24 -4 22 -37 -1 -21 3 -41 8 -45 7 -5 7 -8 -2 -8 -13 0 -7 -47 9
-65 5 -5 9 -15 9 -23 0 -8 8 -21 17 -27 17 -13 17 -14 0 -32 -24 -27 -22 -73
3 -80 15 -4 20 -14 20 -37 0 -17 9 -42 20 -56 11 -14 20 -33 20 -42 0 -11 8
-18 19 -18 11 0 22 -4 26 -10 3 -5 12 -7 20 -3 10 3 15 -1 15 -11 0 -9 7 -19
15 -22 19 -8 19 -24 0 -24 -8 0 -15 -4 -15 -10 0 -5 9 -10 20 -10 27 0 48 -36
57 -100 l8 -55 44 -6 c49 -6 71 -28 71 -70 0 -23 3 -26 26 -21 23 4 24 2 18
-22 -5 -22 -3 -26 15 -26 12 0 21 -4 21 -10 0 -5 9 -10 20 -10 14 0 20 -7 20
-21 0 -15 5 -19 15 -15 11 4 19 -3 25 -19 5 -14 15 -25 21 -25 8 0 10 -13 6
-40 -3 -22 -1 -40 4 -40 5 0 9 -12 9 -26 0 -14 -4 -23 -8 -20 -5 3 -7 -99 -6
-227 3 -231 6 -285 19 -326 3 -11 3 -26 -1 -32 -24 -40 -3 -112 27 -93 9 5 10
2 6 -9 -3 -9 1 -23 9 -32 9 -8 11 -15 5 -15 -6 0 -11 -7 -11 -15 0 -8 6 -12
14 -9 17 6 25 -6 28 -39 1 -14 5 -24 9 -21 18 11 22 -52 20 -323 -2 -160 0
-316 4 -347 7 -54 9 -56 44 -66 20 -5 57 -10 84 -10 35 0 47 -4 47 -15 0 -8 5
-15 10 -15 6 0 13 7 16 15 7 17 44 21 44 5 0 -5 7 -10 15 -10 8 0 15 5 15 10
0 11 525 15 578 4 24 -5 32 -12 34 -33 2 -21 9 -27 36 -29 18 -2 32 1 32 7 0
13 78 4 97 -11 13 -10 244 -5 298 7 47 10 95 11 95 3 0 -4 30 -8 66 -8 57 0
65 2 60 16 -4 10 2 24 15 35 21 18 64 19 1113 19 1167 0 1144 1 1139 -48 -3
-20 2 -22 41 -22 35 0 45 -4 49 -20 4 -14 14 -20 35 -20 17 0 33 4 36 9 10 15
55 19 74 6 10 -8 49 -13 92 -14 87 0 163 -14 168 -30 5 -14 119 -15 124 0 4
11 55 14 185 10 45 -1 88 1 95 5 15 9 49 12 195 15 88 1 103 4 108 19 6 18 58
30 128 30 15 0 34 6 42 14 8 7 25 11 39 9 15 -3 33 1 42 8 20 16 54 19 54 5 0
-6 7 -3 14 7 12 16 87 17 1326 17 l1313 0 23 25 24 26 0 589 c1 580 1 589 21
595 13 5 18 12 14 24 -3 10 2 27 12 38 10 10 14 13 9 6 -6 -10 -1 -13 19 -13
29 0 28 -3 9 68 -4 14 -2 22 5 22 7 0 10 4 7 9 -3 5 1 12 10 15 8 3 13 10 10
15 -4 5 1 17 10 26 9 9 18 29 20 45 2 16 11 47 20 67 17 42 17 42 29 96 4 20
11 40 16 43 5 3 7 10 4 15 -4 5 -1 9 6 9 6 0 9 8 6 20 -3 11 -1 23 4 26 5 3 9
11 7 17 -4 23 14 117 23 123 5 3 7 10 4 15 -4 5 -2 9 3 9 5 0 13 60 17 133 11
172 12 249 5 237 -4 -6 -6 27 -6 72 1 114 -7 249 -15 236 -3 -5 -9 19 -12 54
-3 34 -10 64 -15 66 -12 4 -4 126 8 130 5 2 1 11 -8 21 -9 10 -23 16 -29 13
-12 -4 -18 21 -14 54 1 6 -6 17 -14 24 -8 7 -15 17 -15 23 0 5 -8 15 -17 22
-14 10 -18 29 -18 86 0 54 3 73 13 71 6 -1 12 7 12 17 0 13 6 19 19 18 10 0
18 -8 17 -16 -1 -8 7 -17 17 -19 12 -2 17 3 17 17 0 19 6 21 50 21 61 0 95
-25 86 -62 -3 -12 -3 -17 0 -10 3 6 10 12 15 12 6 0 5 -8 -1 -20 -6 -10 -9
-23 -9 -27 1 -4 -1 -16 -4 -26 -4 -9 -9 -24 -12 -32 -2 -8 -11 -12 -18 -9 -8
3 -17 -2 -20 -10 -4 -9 -12 -13 -20 -10 -17 6 -50 -41 -54 -78 -2 -17 6 -38
23 -57 23 -28 32 -31 80 -31 31 0 53 -4 49 -9 -3 -5 3 -11 12 -13 12 -2 23 7
33 27 9 16 21 29 27 28 6 -1 27 12 47 30 34 29 38 39 52 122 16 92 14 136 -10
204 -11 33 -11 38 0 34 8 -3 14 0 14 6 0 6 -12 11 -27 11 -14 0 -23 3 -20 7 4
3 -4 21 -18 39 -14 18 -25 38 -25 45 0 7 -3 9 -6 6 -4 -4 -20 5 -36 18 -16 14
-36 25 -44 25 -8 0 -14 11 -15 28 -1 16 -3 20 -6 10 -5 -22 2 -22 -69 2 -32
12 -67 19 -77 16 -28 -7 -31 19 -7 69 12 25 19 52 16 60 -3 8 -1 15 3 15 5 0
11 -6 14 -12 2 -7 4 5 4 26 -1 23 4 41 11 44 7 2 12 14 12 27 0 34 10 55 26
55 8 0 14 7 14 16 0 8 -4 12 -10 9 -13 -8 -13 -3 2 32 6 15 11 31 10 35 -1 5
7 17 17 27 12 12 17 27 14 40 -8 30 5 71 21 71 11 0 13 7 6 29 -6 21 -5 31 3
35 9 3 8 7 -2 14 -10 7 -10 11 -1 14 7 2 14 19 17 38 2 19 8 37 13 40 6 4 8
14 4 23 -3 10 -1 24 6 32 7 9 10 18 7 22 -4 3 -3 11 2 17 5 6 11 41 13 79 2
37 6 67 11 67 4 0 7 7 7 16 0 8 6 22 14 30 9 8 13 28 12 47 -2 17 -1 22 1 9 7
-36 28 -20 28 21 1 31 -2 36 -18 31 -17 -5 -18 -1 -11 58 7 67 11 81 23 74 3
-3 7 3 8 12 10 146 17 182 34 182 15 0 19 8 19 40 0 22 -4 40 -8 40 -5 0 -14
12 -21 26 -13 30 -4 124 13 137 8 6 7 10 -1 14 -7 2 -13 12 -13 21 0 15 2 15
11 2 9 -13 7 27 -5 115 0 6 7 9 17 7 12 -2 17 4 16 20 -1 32 -13 60 -24 56 -5
-2 -10 28 -11 65 -1 44 -6 72 -14 77 -10 6 -9 10 3 16 8 5 17 20 20 34 4 24 4
24 6 -3 2 -40 21 -23 21 19 0 24 -4 34 -16 34 -9 0 -18 9 -21 20 -3 11 -9 20
-14 20 -5 0 -7 23 -4 52 2 29 0 57 -6 64 -5 6 -12 35 -16 63 -3 28 -9 51 -12
51 -3 0 -7 23 -8 51 -2 28 -10 80 -18 115 -8 35 -17 83 -20 106 -3 23 -9 46
-14 52 -15 19 -20 56 -8 56 7 0 4 7 -7 15 -15 11 -18 26 -17 80 1 51 -2 65
-13 65 -21 0 -30 19 -28 60 2 26 0 31 -8 20 -9 -13 -10 -13 -10 0 0 12 -19 61
-77 199 -4 9 -2 12 5 7 8 -5 12 1 12 18 0 29 -17 36 -22 9 -2 -13 -6 -11 -15
10 -10 22 -10 25 2 20 9 -3 15 1 15 11 0 14 -11 20 -32 17 -14 -2 -37 56 -32
80 3 17 2 19 -3 6 -7 -13 -16 -1 -43 55 -19 40 -38 75 -43 76 -4 2 -7 8 -7 13
0 6 5 7 10 4 6 -3 10 1 10 10 0 11 -5 15 -14 12 -10 -4 -24 9 -41 38 -14 25
-25 47 -25 51 1 3 -7 13 -17 22 -17 16 -18 53 -21 631 -3 440 -7 619 -15 633
-11 17 -140 18 -4019 18 -3056 0 -4008 -3 -4008 -12z m3416 -3270 c4 -7 3 -8
-4 -4 -7 4 -12 2 -12 -5 0 -7 -3 -10 -6 -6 -6 5 3 27 11 27 2 0 7 -5 11 -12z
m75 -105 c13 -16 12 -17 -3 -4 -10 7 -18 15 -18 17 0 8 8 3 21 -13z m-4214
-1635 c-3 -8 -6 -5 -6 6 -1 11 2 17 5 13 3 -3 4 -12 1 -19z m9295 -480 c-7 -7
-12 -8 -12 -2 0 14 12 26 19 19 2 -3 -1 -11 -7 -17z m-9295 -260 c-2 -13 -4
-5 -4 17 -1 22 1 32 4 23 2 -10 2 -28 0 -40z m5808 -766 c-3 -3 -11 0 -18 7
-9 10 -8 11 6 5 10 -3 15 -9 12 -12z"/>
<path d="M1002 9150 c0 -19 2 -27 5 -17 2 9 2 25 0 35 -3 9 -5 1 -5 -18z"/>
<path d="M1004 8920 c0 -69 1 -97 3 -62 2 34 2 90 0 125 -2 34 -3 6 -3 -63z"/>
<path d="M9100 8136 c0 -53 3 -96 8 -96 11 0 14 178 2 185 -6 4 -10 -28 -10
-89z"/>
<path d="M9144 7984 c3 -9 6 -18 6 -20 0 -3 5 -2 10 1 16 10 12 35 -6 35 -11
0 -14 -5 -10 -16z"/>
<path d="M9385 7520 c-7 -12 12 -40 27 -40 13 0 6 43 -9 47 -6 2 -14 -1 -18
-7z"/>
<path d="M9581 6778 c1 -7 5 -24 9 -38 7 -22 8 -21 9 13 1 20 -3 37 -9 37 -5
0 -10 -6 -9 -12z"/>
<path d="M9662 6040 c0 -19 2 -27 5 -17 2 9 2 25 0 35 -3 9 -5 1 -5 -18z"/>
<path d="M9640 5480 c0 -22 5 -40 10 -40 6 0 10 18 10 40 0 22 -4 40 -10 40
-5 0 -10 -18 -10 -40z"/>
<path d="M406 4753 c-12 -12 -6 -33 9 -33 8 0 15 6 15 14 0 17 -14 28 -24 19z"/>
<path d="M350 4540 c-8 -5 -11 -12 -7 -16 4 -4 13 -2 19 4 15 15 7 24 -12 12z"/>
<path d="M220 3940 c0 -11 5 -20 10 -20 6 0 10 9 10 20 0 11 -4 20 -10 20 -5
0 -10 -9 -10 -20z"/>
<path d="M9099 1683 c-2 -82 -2 -222 1 -313 5 -135 6 -108 8 148 1 171 0 312
-2 312 -2 0 -5 -66 -7 -147z"/>
<path d="M6548 853 c18 -2 45 -2 60 0 15 2 0 4 -33 4 -33 0 -45 -2 -27 -4z"/>
<path d="M7238 853 c23 -2 61 -2 85 0 23 2 4 4 -43 4 -47 0 -66 -2 -42 -4z"/>
<path d="M7478 853 c23 -2 61 -2 85 0 23 2 4 4 -43 4 -47 0 -66 -2 -42 -4z"/>
<path d="M7778 853 c12 -2 32 -2 45 0 12 2 2 4 -23 4 -25 0 -35 -2 -22 -4z"/>
<path d="M7978 853 c34 -2 90 -2 125 0 34 2 6 3 -63 3 -69 0 -97 -1 -62 -3z"/>
<path d="M8818 853 c12 -2 32 -2 45 0 12 2 2 4 -23 4 -25 0 -35 -2 -22 -4z"/>
</g>
</svg>
